<svg xmlns="http://www.w3.org/2000/svg" width="792.124" height="274.496" viewBox="0 0 792.124 274.496">
  <path id="합치기_2" data-name="합치기 2" d="M583.363,218.873c.067-35.383,22.535-54.62,51.094-54.62,26.5,0,45.664,14.829,48.015,40.969H654.131c-.955-9.99-7.632-16.592-18.944-16.592-14.754,0-23.046,11.228-23.046,30.243,0,19.973,8.51,30.172,22.9,30.248,10.794-.076,17.547-5.8,19.087-15.272l28.342.293c-1.548,18.211-17.405,39.353-48.015,39.353C605.313,273.5,583.431,254.116,583.363,218.873Zm179.718,53.153V230.184h-39.2v41.842h-27.9v-106.3h27.9v41.84h39.2v-41.84h28.042v106.3Zm-269.582,0v-106.3h75.914v22.612H521.4v19.228h44.049v22.619H521.4v19.231h47.866v22.612Zm-70.918,0V188.337H390.573V165.725h91.621v22.612H450.186v83.689Zm-68.425,0-18.87-35.38H324.35v35.38h-27.9v-106.3h45.228c23.782,0,39.346,13.509,39.346,35.974,0,14.678-6.753,25.03-18.208,30.468l21.732,39.859ZM324.35,214.763h10.861c10.5,0,16.669-3.817,16.593-13.064.076-9.4-6.092-13.587-16.593-13.656H324.35ZM205.859,272.026v-106.3h75.907v22.612H233.758v19.228h44.049v22.619H233.758v19.231h47.866v22.612Zm-83.837,0-35.39-106.3H118.2l22.316,75.765h.887l22.317-75.765h31.565l-35.238,106.3ZM0,272.026v-106.3H75.914v22.612H27.9v19.228H71.947v22.619H27.9v19.231H75.763v22.612ZM510.679,54.769C510.755,19.824,533.732,0,562.36,0c24.96,0,44.2,15.123,46.55,36.417H580.568c-1.907-7.636-8.292-12.039-17.614-12.039-14.836,0-23.5,11.081-23.5,30.1,0,19.089,8.075,30.319,23.347,30.394,13.213-.076,20.117-6.311,20.259-16.152H563.389V48.747h46.693V63.288c0,28.92-19.824,45.957-47.571,45.957C531.674,109.245,510.755,88.467,510.679,54.769ZM299.973,69.75V1.467h27.9V67.246c0,10.284,7.339,17.624,17.623,17.624,10.427,0,17.691-7.34,17.765-17.624V1.467h27.9V69.75c.069,24.081-18.426,39.275-45.664,39.346C318.182,109.025,299.9,93.831,299.973,69.75Zm-99.987,1.169H226.7c.445,9.915,7.273,15.123,18.36,15.123,9.615,0,14.754-3.892,14.828-9.541-.075-5.137-4.476-8.152-16.3-10.719l-10.719-2.35c-18.721-4.11-30.176-13.357-30.1-29.808C202.63,13.507,220.395,0,245.356,0c25.471,0,41.554,13.727,41.7,34.36h-26.87c-.584-7.12-5.286-11.379-14.827-11.306-9.18-.073-13.439,3.6-13.507,8.518-.225,5.506,4.77,8.511,14.679,10.57L255.34,44.2c22.827,4.844,33.036,15.925,33.187,32.3-.15,20.854-16.158,32.524-43.027,32.6C218.043,109.025,200.2,97.13,199.986,70.919ZM97.352,69.75V1.467h27.9V67.246c0,10.284,7.339,17.624,17.616,17.624,10.427,0,17.7-7.34,17.766-17.624V1.467h27.9V69.75c.076,24.081-18.425,39.275-45.663,39.346C115.561,109.025,97.277,93.831,97.352,69.75Zm376.324,38.023-39.5-57.405h-.737v57.405h-27.9V1.467h23.789l38.912,57.119h.878V1.467h27.9V107.773ZM0,107.773V1.467H45.521c24.226,0,36.921,10.5,37,26.724-.075,11.751-8.293,20.7-20.4,23.2V52.42c13.431.442,24.518,10.208,24.518,25.4,0,17.321-14.1,29.95-37.294,29.95Zm27.9-22.46H42.141C52.2,85.379,57.119,81.5,57.119,74.3c0-7.714-5.582-12.191-14.536-12.191H27.9Zm0-40.678H40.384c7.849,0,13.355-3.814,13.355-10.565s-5.356-10.577-12.92-10.577H27.9Z" transform="translate(0.5 0.5)" fill="#009253" stroke="rgba(0,0,0,0)" stroke-miterlimit="10" stroke-width="1"/>
</svg>
